<?xml version="1.0" encoding="iso-8859-1"?>
<svg version="1.1" id="Capa_1" xmlns="http://www.w3.org/2000/svg" xmlns:xlink="http://www.w3.org/1999/xlink" x="0px" y="0px"
	 viewBox="0 0 28.881 28.881" style="enable-background:new 0 0 28.881 28.881;" xml:space="preserve">
<g>
	<path d="M21.119,11.522c-0.062-0.178-0.131-0.355-0.234-0.535l-0.146-0.26c0.34-0.48,0.527-0.994,0.527-1.533V6.132
		c0-0.412-0.117-0.836-0.346-1.252l-0.07-0.135c0.096-0.217,0.158-0.445,0.158-0.688c0-2.47-5.346-3.808-10.375-3.808
		c-5.031,0-10.377,1.338-10.377,3.809c0,0.242,0.064,0.471,0.16,0.689L0.346,4.88C0.115,5.296,0,5.72,0,6.132v3.062
		c0,0.535,0.188,1.053,0.529,1.531l-0.15,0.262C0.129,11.423,0,11.866,0,12.3v3.062c0,0.525,0.178,1.027,0.504,1.498l-0.125,0.215
		C0.129,17.511,0,17.95,0,18.386v3.064c0,2.719,4.67,4.852,10.633,4.852c1.221,0,2.379-0.096,3.465-0.26
		c-0.072-0.094-0.125-0.197-0.188-0.295c1.572,1.762,3.846,2.885,6.389,2.885c4.732,0,8.582-3.854,8.582-8.586
		C28.881,15.593,25.465,11.94,21.119,11.522z M10.633,1.386c5.725,0,9.238,1.559,9.238,2.672c0,1.117-3.514,2.676-9.238,2.676
		S1.395,5.175,1.395,4.058C1.395,2.944,4.908,1.386,10.633,1.386z M1.139,6.644c1.707,1.447,5.662,2.195,9.494,2.195
		c3.834,0,7.787-0.748,9.494-2.195v2.551c0,1.758-3.898,3.715-9.494,3.715s-9.494-1.957-9.494-3.715
		C1.139,9.195,1.139,6.644,1.139,6.644z M1.139,12.479c1.744,1.602,5.338,2.621,9.494,2.621c0.988,0,1.924-0.076,2.828-0.186
		c-0.695,0.922-1.225,1.982-1.502,3.141c-0.076,0.318-0.135,0.641-0.176,0.969c-0.383,0.02-0.752,0.051-1.15,0.051
		c-5.596,0-9.494-1.957-9.494-3.713C1.139,15.362,1.139,12.479,1.139,12.479z M10.633,25.161c-5.596,0-9.494-1.957-9.494-3.711
		v-2.881c1.744,1.596,5.338,2.619,9.494,2.619c0.396,0,0.777-0.029,1.162-0.047c0.135,1.039,0.449,2.023,0.922,2.918
		c0.174,0.328,0.381,0.637,0.594,0.939C12.473,25.101,11.578,25.161,10.633,25.161z M20.299,26.925
		c-1.984,0-3.768-0.852-5.021-2.197c-0.287-0.303-0.539-0.631-0.764-0.98c-0.688-1.07-1.088-2.338-1.088-3.701
		c0-0.018,0.002-0.035,0.002-0.055c0.004-0.398,0.045-0.787,0.111-1.17c0.062-0.348,0.152-0.689,0.268-1.018
		c0.842-2.422,2.994-4.232,5.609-4.568c0.291-0.035,0.582-0.061,0.883-0.061c0.086,0,0.172,0.008,0.256,0.012
		c3.67,0.139,6.619,3.16,6.619,6.859C27.174,23.839,24.09,26.925,20.299,26.925z" fill="red" fill-rule="inherit" stroke-width="1" stroke="black" />
	<path d="M21.371,23.921c0-0.613,0-1.59,0-1.59s-0.266,0-0.674,0c-1.254,0-3.699,0-4.635,0c0,0-0.219,0.006-0.219-0.277
		s0-3.508,0-3.908c0-0.396,0.262-0.324,0.262-0.324c0.963,0,3.326,0,4.627,0c0.455,0,0.75,0,0.75,0s0-1.221,0-1.725
		c0-0.506,0.436-0.039,0.436-0.039l3.697,3.795c0,0,0.293,0.254,0.029,0.516c-0.363,0.363-3.814,3.701-3.814,3.701
		S21.371,24.534,21.371,23.921z" fill="#44B200"/>
	<g>
	</g>
	<g>
	</g>
	<g>
	</g>
	<g>
	</g>
	<g>
	</g>
	<g>
	</g>
	<g>
	</g>
	<g>
	</g>
	<g>
	</g>
	<g>
	</g>
	<g>
	</g>
	<g>
	</g>
	<g>
	</g>
	<g>
	</g>
	<g>
	</g>
</g>
<g>
</g>
<g>
</g>
<g>
</g>
<g>
</g>
<g>
</g>
<g>
</g>
<g>
</g>
<g>
</g>
<g>
</g>
<g>
</g>
<g>
</g>
<g>
</g>
<g>
</g>
<g>
</g>
<g>
</g>
</svg>
